<?xml version="1.0" encoding="UTF-8"?>
<!DOCTYPE svg
PUBLIC "-//W3C//DTD SVG 1.1//EN"
       "http://www.w3.org/Graphics/SVG/1.1/DTD/svg11.dtd">
<svg viewBox="5 25 2037 965" width="2032px" height="940px" xmlns="http://www.w3.org/2000/svg" version="1.1">
   <line x1="602" y1="270" x2="612" y2="270" style="stroke:#0bf;stroke-width:1;"/>
   <line x1="850" y1="90" x2="860" y2="90" style="stroke:#0bf;stroke-width:1;"/>
   <line x1="612" y1="270" x2="850" y2="90" style="stroke:#0bf;stroke-width:1;"/>
   <line x1="609.5" y1="270" x2="605.96446609407" y2="273.53553390593" style="stroke:#0bf;stroke-width:2;"/>
   <line x1="609.5" y1="270" x2="605.96446609407" y2="266.46446609407" style="stroke:#0bf;stroke-width:2;"/>
   <line x1="855" y1="90" x2="851.46446609407" y2="93.535533905933" style="stroke:#0bf;stroke-width:2;"/>
   <line x1="855" y1="90" x2="851.46446609407" y2="86.464466094067" style="stroke:#0bf;stroke-width:2;"/>
   <line x1="1180" y1="760" x2="1170" y2="760" style="stroke:#333;stroke-width:1;"/>
   <line x1="924" y1="700" x2="914" y2="700" style="stroke:#333;stroke-width:1;"/>
   <line x1="1170" y1="760" x2="924" y2="700" style="stroke:#333;stroke-width:1;"/>
   <line x1="1172.5" y1="760" x2="1176.0355339059" y2="763.53553390593" style="stroke:#333;stroke-width:2;"/>
   <line x1="1172.5" y1="760" x2="1176.0355339059" y2="756.46446609407" style="stroke:#333;stroke-width:2;"/>
   <line x1="919" y1="700" x2="922.53553390593" y2="703.53553390593" style="stroke:#333;stroke-width:2;"/>
   <line x1="919" y1="700" x2="922.53553390593" y2="696.46446609407" style="stroke:#333;stroke-width:2;"/>
   <line x1="1180" y1="780" x2="1170" y2="780" style="stroke:#b0b;stroke-width:1;"/>
   <line x1="1180" y1="420" x2="1190" y2="420" style="stroke:#b0b;stroke-width:1;"/>
   <line x1="1170" y1="780" x2="1180" y2="420" style="stroke:#b0b;stroke-width:1;"/>
   <line x1="1172.5" y1="780" x2="1176.0355339059" y2="783.53553390593" style="stroke:#b0b;stroke-width:2;"/>
   <line x1="1172.5" y1="780" x2="1176.0355339059" y2="776.46446609407" style="stroke:#b0b;stroke-width:2;"/>
   <line x1="1185" y1="420" x2="1181.4644660941" y2="423.53553390593" style="stroke:#b0b;stroke-width:2;"/>
   <line x1="1185" y1="420" x2="1181.4644660941" y2="416.46446609407" style="stroke:#b0b;stroke-width:2;"/>
   <line x1="142" y1="250" x2="152" y2="250" style="stroke:#cb0;stroke-width:1;"/>
   <line x1="460" y1="70" x2="470" y2="70" style="stroke:#cb0;stroke-width:1;"/>
   <line x1="152" y1="250" x2="460" y2="70" style="stroke:#cb0;stroke-width:1;"/>
   <line x1="149.5" y1="250" x2="145.96446609407" y2="253.53553390593" style="stroke:#cb0;stroke-width:2;"/>
   <line x1="149.5" y1="250" x2="145.96446609407" y2="246.46446609407" style="stroke:#cb0;stroke-width:2;"/>
   <line x1="465" y1="70" x2="461.46446609407" y2="73.535533905933" style="stroke:#cb0;stroke-width:2;"/>
   <line x1="465" y1="70" x2="461.46446609407" y2="66.464466094067" style="stroke:#cb0;stroke-width:2;"/>
   <line x1="810" y1="740" x2="800" y2="740" style="stroke:#333;stroke-width:1;"/>
   <line x1="612" y1="70" x2="602" y2="70" style="stroke:#333;stroke-width:1;"/>
   <line x1="800" y1="740" x2="612" y2="70" style="stroke:#333;stroke-width:1;"/>
   <line x1="802.5" y1="740" x2="806.03553390593" y2="743.53553390593" style="stroke:#333;stroke-width:2;"/>
   <line x1="802.5" y1="740" x2="806.03553390593" y2="736.46446609407" style="stroke:#333;stroke-width:2;"/>
   <line x1="607" y1="70" x2="610.53553390593" y2="73.535533905933" style="stroke:#333;stroke-width:2;"/>
   <line x1="607" y1="70" x2="610.53553390593" y2="66.464466094067" style="stroke:#333;stroke-width:2;"/>
   <line x1="810" y1="780" x2="800" y2="780" style="stroke:#0bf;stroke-width:1;"/>
   <line x1="572" y1="840" x2="562" y2="840" style="stroke:#0bf;stroke-width:1;"/>
   <line x1="800" y1="780" x2="572" y2="840" style="stroke:#0bf;stroke-width:1;"/>
   <line x1="802.5" y1="780" x2="806.03553390593" y2="783.53553390593" style="stroke:#0bf;stroke-width:2;"/>
   <line x1="802.5" y1="780" x2="806.03553390593" y2="776.46446609407" style="stroke:#0bf;stroke-width:2;"/>
   <line x1="567" y1="840" x2="570.53553390593" y2="843.53553390593" style="stroke:#0bf;stroke-width:2;"/>
   <line x1="567" y1="840" x2="570.53553390593" y2="836.46446609407" style="stroke:#0bf;stroke-width:2;"/>
   <line x1="114" y1="90" x2="124" y2="90" style="stroke:#cb0;stroke-width:1;"/>
   <line x1="460" y1="70" x2="470" y2="70" style="stroke:#cb0;stroke-width:1;"/>
   <line x1="124" y1="90" x2="460" y2="70" style="stroke:#cb0;stroke-width:1;"/>
   <line x1="121.5" y1="90" x2="117.96446609407" y2="93.535533905933" style="stroke:#cb0;stroke-width:2;"/>
   <line x1="121.5" y1="90" x2="117.96446609407" y2="86.464466094067" style="stroke:#cb0;stroke-width:2;"/>
   <line x1="465" y1="70" x2="461.46446609407" y2="73.535533905933" style="stroke:#cb0;stroke-width:2;"/>
   <line x1="465" y1="70" x2="461.46446609407" y2="66.464466094067" style="stroke:#cb0;stroke-width:2;"/>
   <line x1="1590" y1="360" x2="1580" y2="360" style="stroke:#cb0;stroke-width:1;"/>
   <line x1="1326" y1="420" x2="1316" y2="420" style="stroke:#cb0;stroke-width:1;"/>
   <line x1="1580" y1="360" x2="1326" y2="420" style="stroke:#cb0;stroke-width:1;"/>
   <line x1="1582.5" y1="360" x2="1586.0355339059" y2="363.53553390593" style="stroke:#cb0;stroke-width:2;"/>
   <line x1="1582.5" y1="360" x2="1586.0355339059" y2="356.46446609407" style="stroke:#cb0;stroke-width:2;"/>
   <line x1="1321" y1="420" x2="1324.5355339059" y2="423.53553390593" style="stroke:#cb0;stroke-width:2;"/>
   <line x1="1321" y1="420" x2="1324.5355339059" y2="416.46446609407" style="stroke:#cb0;stroke-width:2;"/>
   <line x1="780" y1="430" x2="770" y2="430" style="stroke:#b0b;stroke-width:1;"/>
   <line x1="546" y1="400" x2="536" y2="400" style="stroke:#b0b;stroke-width:1;"/>
   <line x1="770" y1="430" x2="546" y2="400" style="stroke:#b0b;stroke-width:1;"/>
   <line x1="772.5" y1="430" x2="776.03553390593" y2="433.53553390593" style="stroke:#b0b;stroke-width:2;"/>
   <line x1="772.5" y1="430" x2="776.03553390593" y2="426.46446609407" style="stroke:#b0b;stroke-width:2;"/>
   <line x1="541" y1="400" x2="544.53553390593" y2="403.53553390593" style="stroke:#b0b;stroke-width:2;"/>
   <line x1="541" y1="400" x2="544.53553390593" y2="396.46446609407" style="stroke:#b0b;stroke-width:2;"/>
   <line x1="885" y1="450" x2="895" y2="450" style="stroke:#b0b;stroke-width:1;"/>
   <line x1="1180" y1="420" x2="1190" y2="420" style="stroke:#b0b;stroke-width:1;"/>
   <line x1="895" y1="450" x2="1180" y2="420" style="stroke:#b0b;stroke-width:1;"/>
   <line x1="892.5" y1="450" x2="888.96446609407" y2="453.53553390593" style="stroke:#b0b;stroke-width:2;"/>
   <line x1="892.5" y1="450" x2="888.96446609407" y2="446.46446609407" style="stroke:#b0b;stroke-width:2;"/>
   <line x1="1185" y1="420" x2="1181.4644660941" y2="423.53553390593" style="stroke:#b0b;stroke-width:2;"/>
   <line x1="1185" y1="420" x2="1181.4644660941" y2="416.46446609407" style="stroke:#b0b;stroke-width:2;"/>
   <line x1="420" y1="480" x2="410" y2="480" style="stroke:#0b0;stroke-width:1;"/>
   <line x1="460" y1="70" x2="470" y2="70" style="stroke:#0b0;stroke-width:1;"/>
   <line x1="410" y1="480" x2="460" y2="70" style="stroke:#0b0;stroke-width:1;"/>
   <line x1="412.5" y1="480" x2="416.03553390593" y2="483.53553390593" style="stroke:#0b0;stroke-width:2;"/>
   <line x1="412.5" y1="480" x2="416.03553390593" y2="476.46446609407" style="stroke:#0b0;stroke-width:2;"/>
   <line x1="465" y1="70" x2="461.46446609407" y2="73.535533905933" style="stroke:#0b0;stroke-width:2;"/>
   <line x1="465" y1="70" x2="461.46446609407" y2="66.464466094067" style="stroke:#0b0;stroke-width:2;"/>
   <line x1="420" y1="520" x2="410" y2="520" style="stroke:#b0b;stroke-width:1;"/>
   <line x1="156" y1="560" x2="146" y2="560" style="stroke:#b0b;stroke-width:1;"/>
   <line x1="410" y1="520" x2="156" y2="560" style="stroke:#b0b;stroke-width:1;"/>
   <line x1="412.5" y1="520" x2="416.03553390593" y2="523.53553390593" style="stroke:#b0b;stroke-width:2;"/>
   <line x1="412.5" y1="520" x2="416.03553390593" y2="516.46446609407" style="stroke:#b0b;stroke-width:2;"/>
   <line x1="151" y1="560" x2="154.53553390593" y2="563.53553390593" style="stroke:#b0b;stroke-width:2;"/>
   <line x1="151" y1="560" x2="154.53553390593" y2="556.46446609407" style="stroke:#b0b;stroke-width:2;"/>
   <line x1="420" y1="540" x2="410" y2="540" style="stroke:#b0b;stroke-width:1;"/>
   <line x1="168" y1="730" x2="158" y2="730" style="stroke:#b0b;stroke-width:1;"/>
   <line x1="410" y1="540" x2="168" y2="730" style="stroke:#b0b;stroke-width:1;"/>
   <line x1="412.5" y1="540" x2="416.03553390593" y2="543.53553390593" style="stroke:#b0b;stroke-width:2;"/>
   <line x1="412.5" y1="540" x2="416.03553390593" y2="536.46446609407" style="stroke:#b0b;stroke-width:2;"/>
   <line x1="163" y1="730" x2="166.53553390593" y2="733.53553390593" style="stroke:#b0b;stroke-width:2;"/>
   <line x1="163" y1="730" x2="166.53553390593" y2="726.46446609407" style="stroke:#b0b;stroke-width:2;"/>
   <line x1="1370" y1="100" x2="1360" y2="100" style="stroke:#0b0;stroke-width:1;"/>
   <line x1="1008" y1="90" x2="998" y2="90" style="stroke:#0b0;stroke-width:1;"/>
   <line x1="1360" y1="100" x2="1008" y2="90" style="stroke:#0b0;stroke-width:1;"/>
   <line x1="1362.5" y1="100" x2="1366.0355339059" y2="103.53553390593" style="stroke:#0b0;stroke-width:2;"/>
   <line x1="1362.5" y1="100" x2="1366.0355339059" y2="96.464466094067" style="stroke:#0b0;stroke-width:2;"/>
   <line x1="1003" y1="90" x2="1006.5355339059" y2="93.535533905933" style="stroke:#0b0;stroke-width:2;"/>
   <line x1="1003" y1="90" x2="1006.5355339059" y2="86.464466094067" style="stroke:#0b0;stroke-width:2;"/>
   <line x1="1370" y1="120" x2="1360" y2="120" style="stroke:#0b0;stroke-width:1;"/>
   <line x1="989" y1="210" x2="979" y2="210" style="stroke:#0b0;stroke-width:1;"/>
   <line x1="1360" y1="120" x2="989" y2="210" style="stroke:#0b0;stroke-width:1;"/>
   <line x1="1362.5" y1="120" x2="1366.0355339059" y2="123.53553390593" style="stroke:#0b0;stroke-width:2;"/>
   <line x1="1362.5" y1="120" x2="1366.0355339059" y2="116.46446609407" style="stroke:#0b0;stroke-width:2;"/>
   <line x1="984" y1="210" x2="987.53553390593" y2="213.53553390593" style="stroke:#0b0;stroke-width:2;"/>
   <line x1="984" y1="210" x2="987.53553390593" y2="206.46446609407" style="stroke:#0b0;stroke-width:2;"/>
   <line x1="1550" y1="570" x2="1540" y2="570" style="stroke:#bbb;stroke-width:1;"/>
   <line x1="1326" y1="420" x2="1316" y2="420" style="stroke:#bbb;stroke-width:1;"/>
   <line x1="1540" y1="570" x2="1326" y2="420" style="stroke:#bbb;stroke-width:1;"/>
   <line x1="1542.5" y1="570" x2="1546.0355339059" y2="573.53553390593" style="stroke:#bbb;stroke-width:2;"/>
   <line x1="1542.5" y1="570" x2="1546.0355339059" y2="566.46446609407" style="stroke:#bbb;stroke-width:2;"/>
   <line x1="1321" y1="420" x2="1324.5355339059" y2="423.53553390593" style="stroke:#bbb;stroke-width:2;"/>
   <line x1="1321" y1="420" x2="1324.5355339059" y2="416.46446609407" style="stroke:#bbb;stroke-width:2;"/>
   <line x1="1920" y1="530" x2="1910" y2="530" style="stroke:#0bf;stroke-width:1;"/>
   <line x1="1662" y1="570" x2="1652" y2="570" style="stroke:#0bf;stroke-width:1;"/>
   <line x1="1910" y1="530" x2="1662" y2="570" style="stroke:#0bf;stroke-width:1;"/>
   <line x1="1912.5" y1="530" x2="1916.0355339059" y2="533.53553390593" style="stroke:#0bf;stroke-width:2;"/>
   <line x1="1912.5" y1="530" x2="1916.0355339059" y2="526.46446609407" style="stroke:#0bf;stroke-width:2;"/>
   <line x1="1657" y1="570" x2="1660.5355339059" y2="573.53553390593" style="stroke:#0bf;stroke-width:2;"/>
   <line x1="1657" y1="570" x2="1660.5355339059" y2="566.46446609407" style="stroke:#0bf;stroke-width:2;"/>
   <line x1="1920" y1="510" x2="1910" y2="510" style="stroke:#c00;stroke-width:1;"/>
   <line x1="1910" y1="660" x2="1920" y2="660" style="stroke:#c00;stroke-width:1;"/>
   <line x1="1910" y1="510" x2="1910" y2="660" style="stroke:#c00;stroke-width:1;"/>
   <line x1="1912.5" y1="510" x2="1916.0355339059" y2="513.53553390593" style="stroke:#c00;stroke-width:2;"/>
   <line x1="1912.5" y1="510" x2="1916.0355339059" y2="506.46446609407" style="stroke:#c00;stroke-width:2;"/>
   <line x1="1915" y1="660" x2="1911.4644660941" y2="663.53553390593" style="stroke:#c00;stroke-width:2;"/>
   <line x1="1915" y1="660" x2="1911.4644660941" y2="656.46446609407" style="stroke:#c00;stroke-width:2;"/>
   <rect width="132" height="20" x="470" y="40" style="fill:#007;stroke:black;"/>
   <text width="132" height="20" x="475" y="54" style="fill:#fff;" font-family="Arial" font-size="16px"> accounts</text>
   <rect width="132" height="20" x="470" y="60" style="fill:none;stroke:black;"/>
   <text width="132" height="20" x="475" y="74" style="fill:black;" font-family="Arial" font-size="16px">userName</text>
   <rect width="132" height="20" x="470" y="80" style="fill:none;stroke:black;"/>
   <text width="132" height="20" x="475" y="94" style="fill:black;" font-family="Arial" font-size="16px">passWord</text>
   <rect width="132" height="20" x="470" y="100" style="fill:none;stroke:black;"/>
   <text width="132" height="20" x="475" y="114" style="fill:black;" font-family="Arial" font-size="16px">dateCreated</text>
   <rect width="132" height="20" x="470" y="120" style="fill:none;stroke:black;"/>
   <text width="132" height="20" x="475" y="134" style="fill:black;" font-family="Arial" font-size="16px">accountStatus</text>
   <rect width="132" height="20" x="470" y="140" style="fill:none;stroke:black;"/>
   <text width="132" height="20" x="475" y="154" style="fill:black;" font-family="Arial" font-size="16px">name</text>
   <rect width="132" height="20" x="470" y="160" style="fill:none;stroke:black;"/>
   <text width="132" height="20" x="475" y="174" style="fill:black;" font-family="Arial" font-size="16px">address</text>
   <rect width="132" height="20" x="470" y="180" style="fill:none;stroke:black;"/>
   <text width="132" height="20" x="475" y="194" style="fill:black;" font-family="Arial" font-size="16px">email</text>
   <rect width="132" height="20" x="470" y="200" style="fill:none;stroke:black;"/>
   <text width="132" height="20" x="475" y="214" style="fill:black;" font-family="Arial" font-size="16px">phoneNumber</text>
   <rect width="132" height="20" x="470" y="220" style="fill:none;stroke:black;"/>
   <text width="132" height="20" x="475" y="234" style="fill:black;" font-family="Arial" font-size="16px">birth</text>
   <rect width="132" height="20" x="470" y="240" style="fill:none;stroke:black;"/>
   <text width="132" height="20" x="475" y="254" style="fill:black;" font-family="Arial" font-size="16px">sex</text>
   <rect width="132" height="20" x="470" y="260" style="fill:none;stroke:black;"/>
   <text width="132" height="20" x="475" y="274" style="fill:black;" font-family="Arial" font-size="16px">codePermissions</text>
   <rect width="102" height="20" x="1180" y="730" style="fill:#007;stroke:black;"/>
   <text width="102" height="20" x="1185" y="744" style="fill:#fff;" font-family="Arial" font-size="16px"> ballotdetail</text>
   <rect width="102" height="20" x="1180" y="750" style="fill:none;stroke:black;"/>
   <text width="102" height="20" x="1185" y="764" style="fill:black;" font-family="Arial" font-size="16px">codeBallot</text>
   <rect width="102" height="20" x="1180" y="770" style="fill:none;stroke:black;"/>
   <text width="102" height="20" x="1185" y="784" style="fill:black;" font-family="Arial" font-size="16px">productCode</text>
   <rect width="102" height="20" x="1180" y="790" style="fill:none;stroke:black;"/>
   <text width="102" height="20" x="1185" y="804" style="fill:black;" font-family="Arial" font-size="16px">quantity</text>
   <rect width="102" height="20" x="1180" y="810" style="fill:none;stroke:black;"/>
   <text width="102" height="20" x="1185" y="824" style="fill:black;" font-family="Arial" font-size="16px">priceProduct</text>
   <rect width="102" height="20" x="1180" y="830" style="fill:none;stroke:black;"/>
   <text width="102" height="20" x="1185" y="844" style="fill:black;" font-family="Arial" font-size="16px">sumMoney</text>
   <rect width="112" height="20" x="30" y="220" style="fill:#007;stroke:black;"/>
   <text width="112" height="20" x="35" y="234" style="fill:#fff;" font-family="Arial" font-size="16px"> comment</text>
   <rect width="112" height="20" x="30" y="240" style="fill:none;stroke:black;"/>
   <text width="112" height="20" x="35" y="254" style="fill:black;" font-family="Arial" font-size="16px">userName</text>
   <rect width="112" height="20" x="30" y="260" style="fill:none;stroke:black;"/>
   <text width="112" height="20" x="35" y="274" style="fill:black;" font-family="Arial" font-size="16px">sentDate</text>
   <rect width="112" height="20" x="30" y="280" style="fill:none;stroke:black;"/>
   <text width="112" height="20" x="35" y="294" style="fill:black;" font-family="Arial" font-size="16px">email</text>
   <rect width="112" height="20" x="30" y="300" style="fill:none;stroke:black;"/>
   <text width="112" height="20" x="35" y="314" style="fill:black;" font-family="Arial" font-size="16px">content</text>
   <rect width="112" height="20" x="30" y="320" style="fill:none;stroke:black;"/>
   <text width="112" height="20" x="35" y="334" style="fill:black;" font-family="Arial" font-size="16px">state</text>
   <rect width="112" height="20" x="30" y="340" style="fill:none;stroke:black;"/>
   <text width="112" height="20" x="35" y="354" style="fill:black;" font-family="Arial" font-size="16px">likeNumber</text>
   <rect width="112" height="20" x="30" y="360" style="fill:none;stroke:black;"/>
   <text width="112" height="20" x="35" y="374" style="fill:black;" font-family="Arial" font-size="16px">dislikeNumber</text>
   <rect width="104" height="20" x="810" y="670" style="fill:#007;stroke:black;"/>
   <text width="104" height="20" x="815" y="684" style="fill:#fff;" font-family="Arial" font-size="16px"> enterballot</text>
   <rect width="104" height="20" x="810" y="690" style="fill:none;stroke:black;"/>
   <text width="104" height="20" x="815" y="704" style="fill:black;" font-family="Arial" font-size="16px">codeBallot</text>
   <rect width="104" height="20" x="810" y="710" style="fill:none;stroke:black;"/>
   <text width="104" height="20" x="815" y="724" style="fill:black;" font-family="Arial" font-size="16px">date</text>
   <rect width="104" height="20" x="810" y="730" style="fill:none;stroke:black;"/>
   <text width="104" height="20" x="815" y="744" style="fill:black;" font-family="Arial" font-size="16px">userName</text>
   <rect width="104" height="20" x="810" y="750" style="fill:none;stroke:black;"/>
   <text width="104" height="20" x="815" y="764" style="fill:black;" font-family="Arial" font-size="16px">sumMoney</text>
   <rect width="104" height="20" x="810" y="770" style="fill:none;stroke:black;"/>
   <text width="104" height="20" x="815" y="784" style="fill:black;" font-family="Arial" font-size="16px">codeSupplier</text>
   <rect width="104" height="20" x="810" y="790" style="fill:none;stroke:black;"/>
   <text width="104" height="20" x="815" y="804" style="fill:black;" font-family="Arial" font-size="16px">state</text>
   <rect width="104" height="20" x="810" y="810" style="fill:none;stroke:black;"/>
   <text width="104" height="20" x="815" y="824" style="fill:black;" font-family="Arial" font-size="16px">note</text>
   <rect width="84" height="20" x="30" y="60" style="fill:#007;stroke:black;"/>
   <text width="84" height="20" x="35" y="74" style="fill:#fff;" font-family="Arial" font-size="16px"> feedback</text>
   <rect width="84" height="20" x="30" y="80" style="fill:none;stroke:black;"/>
   <text width="84" height="20" x="35" y="94" style="fill:black;" font-family="Arial" font-size="16px">userName</text>
   <rect width="84" height="20" x="30" y="100" style="fill:none;stroke:black;"/>
   <text width="84" height="20" x="35" y="114" style="fill:black;" font-family="Arial" font-size="16px">sentDate</text>
   <rect width="84" height="20" x="30" y="120" style="fill:none;stroke:black;"/>
   <text width="84" height="20" x="35" y="134" style="fill:black;" font-family="Arial" font-size="16px">email</text>
   <rect width="84" height="20" x="30" y="140" style="fill:none;stroke:black;"/>
   <text width="84" height="20" x="35" y="154" style="fill:black;" font-family="Arial" font-size="16px">content</text>
   <rect width="84" height="20" x="30" y="160" style="fill:none;stroke:black;"/>
   <text width="84" height="20" x="35" y="174" style="fill:black;" font-family="Arial" font-size="16px">state</text>
   <rect width="109" height="20" x="870" y="180" style="fill:#007;stroke:black;"/>
   <text width="109" height="20" x="875" y="194" style="fill:#fff;" font-family="Arial" font-size="16px"> functions</text>
   <rect width="109" height="20" x="870" y="200" style="fill:none;stroke:black;"/>
   <text width="109" height="20" x="875" y="214" style="fill:black;" font-family="Arial" font-size="16px">functionCode</text>
   <rect width="109" height="20" x="870" y="220" style="fill:none;stroke:black;"/>
   <text width="109" height="20" x="875" y="234" style="fill:black;" font-family="Arial" font-size="16px">functionName</text>
   <rect width="123" height="20" x="1590" y="330" style="fill:#007;stroke:black;"/>
   <text width="123" height="20" x="1595" y="344" style="fill:#fff;" font-family="Arial" font-size="16px"> handbagproduct</text>
   <rect width="123" height="20" x="1590" y="350" style="fill:none;stroke:black;"/>
   <text width="123" height="20" x="1595" y="364" style="fill:black;" font-family="Arial" font-size="16px">productCode</text>
   <rect width="123" height="20" x="1590" y="370" style="fill:none;stroke:black;"/>
   <text width="123" height="20" x="1595" y="384" style="fill:black;" font-family="Arial" font-size="16px">bagMaterial</text>
   <rect width="105" height="20" x="780" y="400" style="fill:#007;stroke:black;"/>
   <text width="105" height="20" x="785" y="414" style="fill:#fff;" font-family="Arial" font-size="16px"> orderdetail</text>
   <rect width="105" height="20" x="780" y="420" style="fill:none;stroke:black;"/>
   <text width="105" height="20" x="785" y="434" style="fill:black;" font-family="Arial" font-size="16px">orderCode</text>
   <rect width="105" height="20" x="780" y="440" style="fill:none;stroke:black;"/>
   <text width="105" height="20" x="785" y="454" style="fill:black;" font-family="Arial" font-size="16px">productCode</text>
   <rect width="105" height="20" x="780" y="460" style="fill:none;stroke:black;"/>
   <text width="105" height="20" x="785" y="474" style="fill:black;" font-family="Arial" font-size="16px">nameProduct</text>
   <rect width="105" height="20" x="780" y="480" style="fill:none;stroke:black;"/>
   <text width="105" height="20" x="785" y="494" style="fill:black;" font-family="Arial" font-size="16px">priceProduct</text>
   <rect width="105" height="20" x="780" y="500" style="fill:none;stroke:black;"/>
   <text width="105" height="20" x="785" y="514" style="fill:black;" font-family="Arial" font-size="16px">quantity</text>
   <rect width="105" height="20" x="780" y="520" style="fill:none;stroke:black;"/>
   <text width="105" height="20" x="785" y="534" style="fill:black;" font-family="Arial" font-size="16px">totalMoney</text>
   <rect width="116" height="20" x="420" y="370" style="fill:#007;stroke:black;"/>
   <text width="116" height="20" x="425" y="384" style="fill:#fff;" font-family="Arial" font-size="16px"> orders</text>
   <rect width="116" height="20" x="420" y="390" style="fill:none;stroke:black;"/>
   <text width="116" height="20" x="425" y="404" style="fill:black;" font-family="Arial" font-size="16px">orderCode</text>
   <rect width="116" height="20" x="420" y="410" style="fill:none;stroke:black;"/>
   <text width="116" height="20" x="425" y="424" style="fill:black;" font-family="Arial" font-size="16px">dateCreated</text>
   <rect width="116" height="20" x="420" y="430" style="fill:none;stroke:black;"/>
   <text width="116" height="20" x="425" y="444" style="fill:black;" font-family="Arial" font-size="16px">dateDelivery</text>
   <rect width="116" height="20" x="420" y="450" style="fill:none;stroke:black;"/>
   <text width="116" height="20" x="425" y="464" style="fill:black;" font-family="Arial" font-size="16px">dateFinish</text>
   <rect width="116" height="20" x="420" y="470" style="fill:none;stroke:black;"/>
   <text width="116" height="20" x="425" y="484" style="fill:black;" font-family="Arial" font-size="16px">userName</text>
   <rect width="116" height="20" x="420" y="490" style="fill:none;stroke:black;"/>
   <text width="116" height="20" x="425" y="504" style="fill:black;" font-family="Arial" font-size="16px">totalMoney</text>
   <rect width="116" height="20" x="420" y="510" style="fill:none;stroke:black;"/>
   <text width="116" height="20" x="425" y="524" style="fill:black;" font-family="Arial" font-size="16px">codePayments</text>
   <rect width="116" height="20" x="420" y="530" style="fill:none;stroke:black;"/>
   <text width="116" height="20" x="425" y="544" style="fill:black;" font-family="Arial" font-size="16px">codeTransport</text>
   <rect width="116" height="20" x="420" y="550" style="fill:none;stroke:black;"/>
   <text width="116" height="20" x="425" y="564" style="fill:black;" font-family="Arial" font-size="16px">status</text>
   <rect width="116" height="20" x="420" y="570" style="fill:none;stroke:black;"/>
   <text width="116" height="20" x="425" y="584" style="fill:black;" font-family="Arial" font-size="16px">note</text>
   <rect width="116" height="20" x="30" y="510" style="fill:#007;stroke:black;"/>
   <text width="116" height="20" x="35" y="524" style="fill:#fff;" font-family="Arial" font-size="16px"> payment</text>
   <rect width="116" height="20" x="30" y="530" style="fill:none;stroke:black;"/>
   <text width="116" height="20" x="35" y="544" style="fill:black;" font-family="Arial" font-size="16px">namePayment</text>
   <rect width="116" height="20" x="30" y="550" style="fill:#aea;stroke:black;"/>
   <text width="116" height="20" x="35" y="564" style="fill:black;" font-family="Arial" font-size="16px">codePayments</text>
   <rect width="116" height="20" x="30" y="570" style="fill:none;stroke:black;"/>
   <text width="116" height="20" x="35" y="584" style="fill:black;" font-family="Arial" font-size="16px">affiliatedBank</text>
   <rect width="138" height="20" x="860" y="60" style="fill:#007;stroke:black;"/>
   <text width="138" height="20" x="865" y="74" style="fill:#fff;" font-family="Arial" font-size="16px"> permissions</text>
   <rect width="138" height="20" x="860" y="80" style="fill:none;stroke:black;"/>
   <text width="138" height="20" x="865" y="94" style="fill:black;" font-family="Arial" font-size="16px">codePermissions</text>
   <rect width="138" height="20" x="860" y="100" style="fill:none;stroke:black;"/>
   <text width="138" height="20" x="865" y="114" style="fill:black;" font-family="Arial" font-size="16px">namePermissions</text>
   <rect width="133" height="20" x="1370" y="70" style="fill:#007;stroke:black;"/>
   <text width="133" height="20" x="1375" y="84" style="fill:#fff;" font-family="Arial" font-size="16px"> permissionsdetail</text>
   <rect width="133" height="20" x="1370" y="90" style="fill:none;stroke:black;"/>
   <text width="133" height="20" x="1375" y="104" style="fill:black;" font-family="Arial" font-size="16px">codePermissions</text>
   <rect width="133" height="20" x="1370" y="110" style="fill:none;stroke:black;"/>
   <text width="133" height="20" x="1375" y="124" style="fill:black;" font-family="Arial" font-size="16px">functionCode</text>
   <rect width="133" height="20" x="1370" y="130" style="fill:none;stroke:black;"/>
   <text width="133" height="20" x="1375" y="144" style="fill:black;" font-family="Arial" font-size="16px">addPermission</text>
   <rect width="133" height="20" x="1370" y="150" style="fill:none;stroke:black;"/>
   <text width="133" height="20" x="1375" y="164" style="fill:black;" font-family="Arial" font-size="16px">seePermission</text>
   <rect width="133" height="20" x="1370" y="170" style="fill:none;stroke:black;"/>
   <text width="133" height="20" x="1375" y="184" style="fill:black;" font-family="Arial" font-size="16px">deletePermission</text>
   <rect width="133" height="20" x="1370" y="190" style="fill:none;stroke:black;"/>
   <text width="133" height="20" x="1375" y="204" style="fill:black;" font-family="Arial" font-size="16px">fixPermission</text>
   <rect width="126" height="20" x="1190" y="390" style="fill:#007;stroke:black;"/>
   <text width="126" height="20" x="1195" y="404" style="fill:#fff;" font-family="Arial" font-size="16px"> product</text>
   <rect width="126" height="20" x="1190" y="410" style="fill:none;stroke:black;"/>
   <text width="126" height="20" x="1195" y="424" style="fill:black;" font-family="Arial" font-size="16px">productCode</text>
   <rect width="126" height="20" x="1190" y="430" style="fill:none;stroke:black;"/>
   <text width="126" height="20" x="1195" y="444" style="fill:black;" font-family="Arial" font-size="16px">imgProduct</text>
   <rect width="126" height="20" x="1190" y="450" style="fill:none;stroke:black;"/>
   <text width="126" height="20" x="1195" y="464" style="fill:black;" font-family="Arial" font-size="16px">nameProduct</text>
   <rect width="126" height="20" x="1190" y="470" style="fill:none;stroke:black;"/>
   <text width="126" height="20" x="1195" y="484" style="fill:black;" font-family="Arial" font-size="16px">supplierCode</text>
   <rect width="126" height="20" x="1190" y="490" style="fill:none;stroke:black;"/>
   <text width="126" height="20" x="1195" y="504" style="fill:black;" font-family="Arial" font-size="16px">quantity</text>
   <rect width="126" height="20" x="1190" y="510" style="fill:none;stroke:black;"/>
   <text width="126" height="20" x="1195" y="524" style="fill:black;" font-family="Arial" font-size="16px">describeProduct</text>
   <rect width="126" height="20" x="1190" y="530" style="fill:none;stroke:black;"/>
   <text width="126" height="20" x="1195" y="544" style="fill:black;" font-family="Arial" font-size="16px">status</text>
   <rect width="126" height="20" x="1190" y="550" style="fill:none;stroke:black;"/>
   <text width="126" height="20" x="1195" y="564" style="fill:black;" font-family="Arial" font-size="16px">color</text>
   <rect width="126" height="20" x="1190" y="570" style="fill:none;stroke:black;"/>
   <text width="126" height="20" x="1195" y="584" style="fill:black;" font-family="Arial" font-size="16px">targetGender</text>
   <rect width="126" height="20" x="1190" y="590" style="fill:none;stroke:black;"/>
   <text width="126" height="20" x="1195" y="604" style="fill:black;" font-family="Arial" font-size="16px">price</text>
   <rect width="102" height="20" x="1550" y="540" style="fill:#007;stroke:black;"/>
   <text width="102" height="20" x="1555" y="554" style="fill:#fff;" font-family="Arial" font-size="16px"> shirtproduct</text>
   <rect width="102" height="20" x="1550" y="560" style="fill:none;stroke:black;"/>
   <text width="102" height="20" x="1555" y="574" style="fill:black;" font-family="Arial" font-size="16px">productCode</text>
   <rect width="102" height="20" x="1550" y="580" style="fill:none;stroke:black;"/>
   <text width="102" height="20" x="1555" y="594" style="fill:black;" font-family="Arial" font-size="16px">shirtMaterial</text>
   <rect width="102" height="20" x="1550" y="600" style="fill:none;stroke:black;"/>
   <text width="102" height="20" x="1555" y="614" style="fill:black;" font-family="Arial" font-size="16px">sizeCode</text>
   <rect width="102" height="20" x="1550" y="620" style="fill:none;stroke:black;"/>
   <text width="102" height="20" x="1555" y="634" style="fill:black;" font-family="Arial" font-size="16px">shirtStyle</text>
   <rect width="102" height="20" x="1920" y="480" style="fill:#007;stroke:black;"/>
   <text width="102" height="20" x="1925" y="494" style="fill:#fff;" font-family="Arial" font-size="16px"> shirtsize</text>
   <rect width="102" height="20" x="1920" y="500" style="fill:none;stroke:black;"/>
   <text width="102" height="20" x="1925" y="514" style="fill:black;" font-family="Arial" font-size="16px">sizeCode</text>
   <rect width="102" height="20" x="1920" y="520" style="fill:none;stroke:black;"/>
   <text width="102" height="20" x="1925" y="534" style="fill:black;" font-family="Arial" font-size="16px">productCode</text>
   <rect width="81" height="20" x="1920" y="630" style="fill:#007;stroke:black;"/>
   <text width="81" height="20" x="1925" y="644" style="fill:#fff;" font-family="Arial" font-size="16px"> size</text>
   <rect width="81" height="20" x="1920" y="650" style="fill:none;stroke:black;"/>
   <text width="81" height="20" x="1925" y="664" style="fill:black;" font-family="Arial" font-size="16px">sizeCode</text>
   <rect width="81" height="20" x="1920" y="670" style="fill:none;stroke:black;"/>
   <text width="81" height="20" x="1925" y="684" style="fill:black;" font-family="Arial" font-size="16px">sizeName</text>
   <rect width="112" height="20" x="450" y="810" style="fill:#007;stroke:black;"/>
   <text width="112" height="20" x="455" y="824" style="fill:#fff;" font-family="Arial" font-size="16px"> supplier</text>
   <rect width="112" height="20" x="450" y="830" style="fill:none;stroke:black;"/>
   <text width="112" height="20" x="455" y="844" style="fill:black;" font-family="Arial" font-size="16px">codeSupplier</text>
   <rect width="112" height="20" x="450" y="850" style="fill:none;stroke:black;"/>
   <text width="112" height="20" x="455" y="864" style="fill:black;" font-family="Arial" font-size="16px">nameSupplier</text>
   <rect width="112" height="20" x="450" y="870" style="fill:none;stroke:black;"/>
   <text width="112" height="20" x="455" y="884" style="fill:black;" font-family="Arial" font-size="16px">address</text>
   <rect width="112" height="20" x="450" y="890" style="fill:none;stroke:black;"/>
   <text width="112" height="20" x="455" y="904" style="fill:black;" font-family="Arial" font-size="16px">email</text>
   <rect width="112" height="20" x="450" y="910" style="fill:none;stroke:black;"/>
   <text width="112" height="20" x="455" y="924" style="fill:black;" font-family="Arial" font-size="16px">brandSupplier</text>
   <rect width="112" height="20" x="450" y="930" style="fill:none;stroke:black;"/>
   <text width="112" height="20" x="455" y="944" style="fill:black;" font-family="Arial" font-size="16px">phoneNumber</text>
   <rect width="138" height="20" x="20" y="680" style="fill:#007;stroke:black;"/>
   <text width="138" height="20" x="25" y="694" style="fill:#fff;" font-family="Arial" font-size="16px"> transport</text>
   <rect width="138" height="20" x="20" y="700" style="fill:none;stroke:black;"/>
   <text width="138" height="20" x="25" y="714" style="fill:black;" font-family="Arial" font-size="16px">nameTransport</text>
   <rect width="138" height="20" x="20" y="720" style="fill:#aea;stroke:black;"/>
   <text width="138" height="20" x="25" y="734" style="fill:black;" font-family="Arial" font-size="16px">codeTransport</text>
   <rect width="138" height="20" x="20" y="740" style="fill:none;stroke:black;"/>
   <text width="138" height="20" x="25" y="754" style="fill:black;" font-family="Arial" font-size="16px">affiliatedCompany</text>
</svg>
